<svg xmlns="http://www.w3.org/2000/svg">
    <defs>
        <symbol xmlns="http://www.w3.org/2000/svg" viewBox="0 0 28 28" id="icon-logo">
            <path fill="currentColor" d="M26.0008 7.35334C26.0008 5.54646 24.2879 4.23059 22.5421 4.69622L4.04548 9.62939C2.84171 9.95045 2.00415 11.0407 2.00415 12.2865V15.7136C2.00415 16.9594 2.84171 18.0496 4.04548 18.3707L7 19.1587V19.5C7 21.9853 9.01472 24 11.5 24C13.2899 24 14.8357 22.955 15.5606 21.4419L22.5421 23.3039C24.2879 23.7695 26.0008 22.4536 26.0008 20.6468V7.35334ZM8.50057 19.5589L14.0722 21.0449C13.5474 21.9168 12.5918 22.5 11.5 22.5C9.86282 22.5 8.53195 21.1886 8.50057 19.5589Z"></path>
        </symbol>
        <symbol xmlns="http://www.w3.org/2000/svg" viewBox="0 0 24 24" id="icon-theme">
            <path fill="currentColor" d="M3.83904058,5.85749561 C6.78004581,1.94188971 12.8686707,0.802505202 17.2029394,3.497377 C21.4827525,6.15839057 23.0567972,11.2744655 21.303866,16.0747407 C19.648689,20.6073231 15.2875295,22.403209 12.1442101,20.1231428 C10.9667425,19.2690444 10.5102901,18.1984035 10.2896576,16.4593132 L10.1842745,15.4713913 L10.1388589,15.073954 C10.0162342,14.1399065 9.82780748,13.7214296 9.43453605,13.5022264 C8.89894535,13.2036966 8.54231757,13.1967226 7.83905282,13.4692784 L7.48794193,13.6148779 L7.30920754,13.6928218 C6.29543196,14.1331038 5.62104161,14.2877923 4.76804588,14.1090543 L4.56779442,14.0618665 L4.40426138,14.0152691 C1.61529547,13.1510586 1.20220653,9.36813303 3.83904058,5.85749561 Z M16.7670717,10.5795744 C16.9457489,11.2464071 17.6311701,11.6421352 18.2980028,11.4634579 C18.9648354,11.2847806 19.3605635,10.5993594 19.1818862,9.93252681 C19.003209,9.26569418 18.3177878,8.86996607 17.6509552,9.04864333 C16.9841225,9.2273206 16.5883944,9.91274179 16.7670717,10.5795744 Z M17.2616616,14.0682389 C17.4403389,14.7350716 18.1257601,15.1307997 18.7925927,14.9521224 C19.4594253,14.7734451 19.8551535,14.0880239 19.6764762,13.4211913 C19.4977989,12.7543587 18.8123777,12.3586306 18.1455451,12.5373078 C17.4787125,12.7159851 17.0829844,13.4014063 17.2616616,14.0682389 Z M14.7885641,7.57689062 C14.9672413,8.24372325 15.6526625,8.63945136 16.3194952,8.4607741 C16.9863278,8.28209683 17.3820559,7.59667564 17.2033786,6.92984301 C17.0247014,6.26301038 16.3392802,5.86728227 15.6724475,6.04595953 C15.0056149,6.2246368 14.6098868,6.91005799 14.7885641,7.57689062 Z M14.7600823,16.5752747 C14.9387596,17.2421074 15.6241808,17.6378355 16.2910134,17.4591582 C16.9578461,17.280481 17.3535742,16.5950598 17.1748969,15.9282271 C16.9962196,15.2613945 16.3107985,14.8656664 15.6439658,15.0443437 C14.9771332,15.2230209 14.5814051,15.9084421 14.7600823,16.5752747 Z M11.2631594,6.60529725 C11.4418366,7.27212988 12.1272578,7.66785799 12.7940904,7.48918073 C13.4609231,7.31050346 13.8566512,6.62508227 13.6779739,5.95824964 C13.4992967,5.29141701 12.8138755,4.8956889 12.1470428,5.07436616 C11.4802102,5.25304343 11.0844821,5.93846462 11.2631594,6.60529725 Z"></path>
        </symbol>
        <symbol xmlns="http://www.w3.org/2000/svg" viewBox="0 0 24 24" id="icon-cookies">
            <path fill="currentColor" d="M12,2 C12.7139344,2 13.4186669,2.07493649 14.1058513,2.22228153 C14.6865234,2.34678839 14.8990219,3.06470877 14.4796691,3.48521478 C14.0147885,3.95137375 13.75,4.57867916 13.75,5.25 C13.75,6.42043414 14.5611837,7.42718287 15.6858365,7.68625206 C16.0559035,7.77149876 16.3038519,8.11989963 16.2631619,8.49747198 C16.2544079,8.57870262 16.25,8.66307444 16.25,8.75 C16.25,10.1307119 17.3692881,11.25 18.75,11.25 C19.4766017,11.25 20.151276,10.9392994 20.6235262,10.4053218 C21.0526462,9.92011177 21.8536336,10.1704416 21.9300905,10.8136579 C21.9765784,11.2047517 22,11.6008646 22,12 C22,17.5228475 17.5228475,22 12,22 C6.4771525,22 2,17.5228475 2,12 C2,6.4771525 6.4771525,2 12,2 Z M15,16 C14.4477153,16 14,16.4477153 14,17 C14,17.5522847 14.4477153,18 15,18 C15.5522847,18 16,17.5522847 16,17 C16,16.4477153 15.5522847,16 15,16 Z M8,15 C7.44771525,15 7,15.4477153 7,16 C7,16.5522847 7.44771525,17 8,17 C8.55228475,17 9,16.5522847 9,16 C9,15.4477153 8.55228475,15 8,15 Z M12,11 C11.4477153,11 11,11.4477153 11,12 C11,12.5522847 11.4477153,13 12,13 C12.5522847,13 13,12.5522847 13,12 C13,11.4477153 12.5522847,11 12,11 Z M7,8 C6.44771525,8 6,8.44771525 6,9 C6,9.55228475 6.44771525,10 7,10 C7.55228475,10 8,9.55228475 8,9 C8,8.44771525 7.55228475,8 7,8 Z"></path>
        </symbol>
        <symbol xmlns="http://www.w3.org/2000/svg" viewBox="0 0 24 24" id="icon-color-background">
            <path fill="currentColor" d="M2 12.4143V17.5C2 18.8807 3.11929 20 4.5 20H19.5C20.8807 20 22 18.8807 22 17.5V6.5C22 5.11929 20.8807 4 19.5 4H10.5563L12.9779 6.42168C13.8136 7.25738 14.0532 8.46345 13.6967 9.5115C14.0772 9.55425 14.4464 9.72143 14.738 10.0131L14.7402 10.0153L14.7438 10.0188L14.7527 10.0279L14.773 10.0485C14.7913 10.0674 14.8159 10.0929 14.8459 10.1246C14.9058 10.1878 14.9877 10.2763 15.0844 10.3856C15.2761 10.6024 15.5344 10.9111 15.7966 11.2762C16.0554 11.6367 16.3409 12.0839 16.567 12.5765C16.7863 13.0542 17 13.682 17 14.3749C17 16.2314 15.6058 17.9999 13.5 17.9999C11.3942 17.9999 10 16.2314 10 14.3749C10 14.0848 10.0375 13.8062 10.0971 13.5452L8.7353 14.907C7.56373 16.0785 5.66423 16.0785 4.49266 14.907L2 12.4143Z M11.3418 12.9938C11.1541 13.4027 11 13.8816 11 14.375C11 15.7654 12.0289 17 13.5 17C14.9711 17 16 15.7654 16 14.375C16 13.8816 15.8459 13.4027 15.6582 12.9938C15.4675 12.5784 15.2202 12.1881 14.9842 11.8595C14.7469 11.5289 14.5112 11.247 14.3353 11.0481L14.0303 10.7197C13.7374 10.4268 13.2626 10.4268 12.9697 10.7197L12.9642 10.7254C12.9062 10.7867 12.7502 10.9515 12.6647 11.0481C12.4888 11.247 12.2531 11.5289 12.0158 11.8595C11.7798 12.1881 11.5325 12.5784 11.3418 12.9938ZM13.5 12.3844C13.5858 12.4916 13.676 12.6092 13.7658 12.7343C13.9673 13.015 14.1575 13.32 14.2949 13.6195C14.4353 13.9253 14.5 14.1808 14.5 14.375C14.5 15.0663 14.0191 15.5 13.5 15.5C12.9809 15.5 12.5 15.0663 12.5 14.375C12.5 14.1808 12.5647 13.9253 12.7051 13.6195C12.8425 13.32 13.0327 13.015 13.2342 12.7343C13.324 12.6092 13.4142 12.4916 13.5 12.3844Z M6.74994 1C6.33573 1 5.99994 1.33579 5.99994 1.75V3.50567C5.9682 3.53365 5.93713 3.56281 5.9068 3.59315L1.66416 7.83579C0.883107 8.61684 0.883107 9.88317 1.66416 10.6642L5.19969 14.1997C5.98074 14.9808 7.24707 14.9808 8.02812 14.1997L12.2708 9.95711C13.0518 9.17606 13.0518 7.90973 12.2708 7.12868L8.73522 3.59315C8.39025 3.24818 7.95062 3.05557 7.49994 3.01533V1.75C7.49994 1.33579 7.16416 1 6.74994 1ZM5.99994 5.62132V6.25C5.99994 6.66421 6.33573 7 6.74994 7C7.16416 7 7.49994 6.66421 7.49994 6.25V4.54034C7.56359 4.56468 7.62326 4.60251 7.67456 4.65381L11.2101 8.18934C11.2995 8.27879 11.348 8.3937 11.3555 8.51074H3.11052L5.99994 5.62132ZM6.26035 13.1391L3.132 10.0107H10.0958L6.96746 13.1391C6.77219 13.3343 6.45561 13.3343 6.26035 13.1391Z"></path>
        </symbol>
        <symbol xmlns="http://www.w3.org/2000/svg" viewBox="0 0 24 24" id="icon-color-text">
            <path fill="currentColor" d="M17.75,14.500543 C18.9926407,14.500543 20,15.5079023 20,16.750543 L20,19.7503837 C20,20.9930243 18.9926407,22.0003837 17.75,22.0003837 L5.25,22.0003837 C4.00735931,22.0003837 3,20.9930243 3,19.7503837 L3,16.750543 C3,15.5079023 4.00735931,14.500543 5.25,14.500543 L17.75,14.500543 Z M7.05252224,11.9694299 L10.8061334,2.47427411 C11.0415216,1.87883471 11.8486376,1.84414583 12.1508398,2.36975012 L12.2013229,2.47486675 L15.9477118,11.9753527 C16.0996637,12.3606883 15.9104688,12.7962458 15.5251332,12.9481977 C15.171909,13.087487 14.7764843,12.9401182 14.5959915,12.6177829 L14.5522882,12.5256192 L13.556,10 L9.443,10 L8.44747776,12.5208817 C8.30788849,12.8739875 7.9301318,13.0620782 7.57143476,12.9736808 L7.47427411,12.9426336 C7.1211683,12.8030443 6.93307758,12.4252876 7.02147501,12.0665906 L7.05252224,11.9694299 L10.8061334,2.47427411 L7.05252224,11.9694299 Z M11.5027436,4.79226402 L10.036,8.5 L12.964,8.5 L11.5027436,4.79226402 Z"></path>
        </symbol>
        <symbol xmlns="http://www.w3.org/2000/svg" viewBox="0 0 24 24" id="icon-font-decrease">
            <path fill="currentColor" d="M12.7975385,7.39384615 L12.8658462,7.49846154 L12.9230769,7.61538462 L16.6730769,16.6153846 C16.8854941,17.1251859 16.6444167,17.7106597 16.1346154,17.9230769 C15.6612285,18.1203215 15.1225933,17.9265426 14.8779876,17.4896781 L14.8269231,17.3846154 L13.833,15 L10.166,15 L9.17307692,17.3846154 C8.97583237,17.8580023 8.45692169,18.0996835 7.97562247,17.961721 L7.86538462,17.9230769 C7.39199769,17.7258324 7.15031654,17.2069217 7.28827901,16.7256225 L7.32692308,16.6153846 L11.0769231,7.61538462 C11.3846154,6.87692308 12.3569231,6.80307692 12.7975385,7.39384615 Z M12,10.6 L11,13 L13,13 L12,10.6 Z M20.876677,3.33675137 C21.0850834,3.65037943 21.0264848,4.06361153 20.7549114,4.30838932 L20.6671042,4.37650097 L18.4160963,5.8722993 C18.1960388,6.01852788 17.9180282,6.03680645 17.6834824,5.92713502 L17.5859195,5.8722993 L15.3349116,4.37650097 C14.9899208,4.14725399 14.8960918,3.68174224 15.1253388,3.33675137 C15.3337451,3.02312331 15.7374116,2.91706708 16.0682799,3.07261274 L16.1650884,3.12717853 L18.001,4.346 L19.8369274,3.12717853 C20.1819183,2.89793155 20.6474301,2.99176051 20.876677,3.33675137 Z"></path>
        </symbol>
        <symbol xmlns="http://www.w3.org/2000/svg" viewBox="0 0 24 24" id="icon-font-increase">
            <path fill="currentColor" d="M12.8101986,4.41064097 L12.8776346,4.51935775 L12.930792,4.63445088 L18.430792,18.6390155 C18.6326793,19.1530777 18.3796114,19.7334694 17.8655491,19.9353566 C17.3882056,20.1228233 16.8536698,19.9180073 16.6181008,19.4762044 L16.569208,19.3701137 L15.245,15.999 L8.754,15.999 L7.43079205,19.3701137 C7.24332536,19.8474572 6.72949509,20.0997597 6.24546021,19.9717253 L6.13445088,19.9353566 C5.65710736,19.74789 5.4048049,19.2340597 5.53283932,18.7500248 L5.56920795,18.6390155 L11.069208,4.63445088 C11.3689581,3.8712017 12.3728054,3.7965984 12.8101986,4.41064097 Z M12,7.734 L9.539,13.999 L14.46,13.999 L12,7.734 Z M17.6834824,3.07042232 C17.8845216,2.97641824 18.1174942,2.97641824 18.3185334,3.07042232 L18.4160963,3.12525804 L20.6671042,4.62105637 L20.7549114,4.68916802 C21.0264848,4.93394581 21.0850834,5.3471779 20.876677,5.66080596 C20.6682707,5.97443402 20.2646042,6.08049026 19.9337359,5.9249446 L19.8369274,5.87037881 L18.001,4.65071759 L16.1650884,5.87037881 L16.0682799,5.9249446 C15.7374116,6.08049026 15.3337451,5.97443402 15.1253388,5.66080596 C14.9169324,5.3471779 14.975531,4.93394581 15.2471044,4.68916802 L15.3349116,4.62105637 L17.5859195,3.12525804 L17.6834824,3.07042232 Z"></path>
        </symbol>
        <symbol xmlns="http://www.w3.org/2000/svg" viewBox="0 0 24 24" id="icon-edit">
            <path fill="currentColor" d="M12 2V8C12 9.10457 12.8954 10 14 10H18.9209C18.324 10.2196 17.7756 10.5541 17.3621 10.9704L11.3114 17.0623C10.9598 17.4164 10.7086 17.8576 10.5836 18.3407L10.0588 20.3701C9.90491 20.9651 10.0168 21.5396 10.3007 22H5.5C4.67157 22 4 21.3284 4 20.5V3.5C4 2.67157 4.67157 2 5.5 2H12Z M13.5 2.5V8C13.5 8.27614 13.7239 8.5 14 8.5H19.5L13.5 2.5Z M12.1957 17.5719L18.0981 11.6695C18.9907 10.7768 20.4379 10.7768 21.3305 11.6695C22.2231 12.5621 22.2231 14.0093 21.3305 14.9019L15.4281 20.8043C15.084 21.1485 14.6528 21.3926 14.1806 21.5106L12.3499 21.9683C11.5538 22.1674 10.8326 21.4462 11.0317 20.6501L11.4894 18.8194C11.6074 18.3472 11.8515 17.916 12.1957 17.5719ZM19.1587 12.7301L13.2563 18.6325C13.1044 18.7844 12.9967 18.9748 12.9446 19.1832L12.6538 20.3462L13.8168 20.0554C14.0252 20.0033 14.2155 19.8956 14.3674 19.7437L20.2699 13.8412C20.5767 13.5344 20.5767 13.0369 20.2699 12.7301C19.963 12.4233 19.4656 12.4233 19.1587 12.7301Z"></path>
        </symbol>
        <symbol xmlns="http://www.w3.org/2000/svg" viewBox="0 0 48 48" id="icon-delete">
            <path fill="currentColor" d="M24,6.75 C27.3750735,6.75 30.1253119,9.4252368 30.245878,12.7708731 L30.25,13.0010013 L37,13 C37.9664983,13 38.75,13.7835017 38.75,14.75 C38.75,15.6681734 38.0428897,16.4211923 37.1435272,16.4941988 L37,16.5 L35.833,16.5 L34.2058308,38.0698451 C34.0385226,40.2866784 32.1910211,42 29.9678833,42 L18.0321167,42 C15.8089789,42 13.9614774,40.2866784 13.7941692,38.0698451 L12.166,16.5 L11,16.5 C10.0818266,16.5 9.32880766,15.7928897 9.2558012,14.8935272 L9.25,14.75 C9.25,13.8318266 9.95711027,13.0788077 10.8564728,13.0058012 L11,13 L17.75,13 C17.75,9.70163274 20.305017,7.00002168 23.5438239,6.76639376 L23.7708731,6.75412198 L24,6.75 Z M27.75,19.75 C27.1027913,19.75 26.5704661,20.2418747 26.5064536,20.8721948 L26.5,21 L26.5,33 L26.5064536,33.1278052 C26.5704661,33.7581253 27.1027913,34.25 27.75,34.25 C28.3972087,34.25 28.9295339,33.7581253 28.9935464,33.1278052 L29,33 L29,21 L28.9935464,20.8721948 C28.9295339,20.2418747 28.3972087,19.75 27.75,19.75 Z M20.25,19.75 C19.6027913,19.75 19.0704661,20.2418747 19.0064536,20.8721948 L19,21 L19,33 L19.0064536,33.1278052 C19.0704661,33.7581253 19.6027913,34.25 20.25,34.25 C20.8972087,34.25 21.4295339,33.7581253 21.4935464,33.1278052 L21.5,33 L21.5,21 L21.4935464,20.8721948 C21.4295339,20.2418747 20.8972087,19.75 20.25,19.75 Z M24.1675223,10.2550188 L24,10.25 C22.5374682,10.25 21.3415957,11.3917046 21.2550188,12.8324777 L21.2500002,13.0010036 L26.7500002,13 C26.7500002,11.5374682 25.6082954,10.3415957 24.1675223,10.2550188 Z"></path>
        </symbol>
        <symbol xmlns="http://www.w3.org/2000/svg" viewBox="0 0 48 48" id="icon-print">
            <path fill="currentColor" d="M31.75,8 C33.4830315,8 34.8992459,9.35645477 34.9948552,11.0655761 L35,11.25 L35,14 L36.75,14 C39.6494949,14 42,16.3505051 42,19.25 L42,32.75 C42,34.5449254 40.5449254,36 38.75,36 L35,36 L35,37.75 C35,39.5449254 33.5449254,41 31.75,41 L16.25,41 C14.4550746,41 13,39.5449254 13,37.75 L13,36 L9.25,36 C7.45507456,36 6,34.5449254 6,32.75 L6,19.25 C6,16.3505051 8.35050506,14 11.25,14 L13,14 L13,11.25 C13,9.51696854 14.3564548,8.10075407 16.0655761,8.00514479 L16.25,8 L31.75,8 Z M15.5,37.75 C15.5,38.1642136 15.8357864,38.5 16.25,38.5 L31.75,38.5 C32.1642136,38.5 32.5,38.1642136 32.5,37.75 L32.5,29.25 C32.5,28.8357864 32.1642136,28.5 31.75,28.5 L16.25,28.5 C15.8357864,28.5 15.5,28.8357864 15.5,29.25 L15.5,37.75 Z M31.75,10.5 L16.25,10.5 C15.8703042,10.5 15.556509,10.7821539 15.5068466,11.1482294 L15.5,11.25 L15.5,14 L32.5,14 L32.5,11.25 C32.5,10.8703042 32.2178461,10.556509 31.8517706,10.5068466 L31.75,10.5 Z"></path>
        </symbol>
        <symbol xmlns="http://www.w3.org/2000/svg" viewBox="0 0 24 24" id="icon-pdf">
            <path fill="currentColor" d="M12,2 L12,8 C12,9.05436227 12.81585,9.91816517 13.8507339,9.99451427 L14,10 L20,10 L20,10.6684 C20.5457231,10.9276923 20.9360284,11.4610959 20.9928462,12.0906982 L21,12.25 L21,17.75 C21,18.3944 20.6516734,18.9574272 20.1330898,19.2611692 L20,19.3316 L20,20 C20,21.0543909 19.18415,21.9181678 18.1492661,21.9945144 L18,22 L6,22 C4.94563773,22 4.08183483,21.18415 4.00548573,20.1492661 L4,20 L4,19.3316 C3.45424,19.0723077 3.06396592,18.5389041 3.0071531,17.9093018 L3,17.75 L3,12.25 C3,11.6056 3.34829254,11.0425728 3.86690228,10.7388308 L4,10.6684 L4,4 C4,2.94563773 4.81587733,2.08183483 5.85073759,2.00548573 L6,2 L12,2 Z M19.25,12 L4.75,12 C4.61193,12 4.5,12.1119 4.5,12.25 L4.5,17.75 C4.5,17.8881 4.61193,18 4.75,18 L19.25,18 C19.3881,18 19.5,17.8881 19.5,17.75 L19.5,12.25 C19.5,12.1119 19.3881,12 19.25,12 Z M8.50004,13.0021 C9.32858,13.0021 10.0002,13.6737 10.0002,14.5023 C10.0002,15.2820647 9.40527017,15.9229339 8.64451925,15.9956321 L8.50004,16.0025 L8.00269,16.0025 L8.00269,16.5021 C8.00269,16.7782 7.77883,17.0021 7.50269,17.0021 C7.25722333,17.0021 7.05308012,16.8251914 7.01074542,16.5919645 L7.00269,16.5021 L7.00269,13.5021 C7.00269,13.2565889 7.17955914,13.0524802 7.41281236,13.0101538 L7.50269,13.0021 L8.50004,13.0021 Z M17.0027,13.0021 C17.2788,13.0021 17.5027,13.2259 17.5027,13.5021 C17.5027,13.7782 17.2788,14.0021 17.0027,14.0021 L15.997,14.0021 L15.9958,15.0038 L17.0027,15.0038 C17.2788,15.0038 17.5027,15.2277 17.5027,15.5038 C17.5027,15.7799 17.2788,16.0038 17.0027,16.0038 L15.9964,16.0038 L15.9977,16.5008 C15.9984,16.7769 15.7751,17.0014 15.4989,17.0021 C15.2228,17.0028 14.9984,16.7795 14.9977,16.5033 L14.9951,15.5032 L14.9977,13.5014 C14.998,13.2255 15.2218,13.0021 15.4977,13.0021 L17.0027,13.0021 Z M11.9976,13.0021 C13.1021,13.0021 13.9976,13.8975 13.9976,15.0021 C13.9975045,16.0564909 13.1816502,16.9202678 12.1468531,16.9966144 L11.9976,17.0021 L11.5,17.0021 C11.2545778,17.0021 11.0504,16.8251914 11.0080571,16.5919645 L11,16.5021 L11,13.5021 C11,13.2565889 11.1769086,13.0524802 11.4101355,13.0101538 L11.5,13.0021 L11.9976,13.0021 Z M12,14.0021 L12,16.0021 C12.5512,16.0008 12.9975,15.5535 12.9976,15.0021 C12.9976,14.4899929 12.6126939,14.0678179 12.1163857,14.0090791 L12,14.0021 Z M8.50004,14.0021 L8.00269,14.0021 L8.00269,15.0025 L8.50004,15.0025 C8.7763,15.0025 9.00024,14.7785 9.00024,14.5023 C9.00024,14.2567 8.82329185,14.0525025 8.58995084,14.0101573 L8.50004,14.0021 Z M13.5,2.5 L19.5,8.5 L14,8.5 C13.7239,8.5 13.5,8.27614 13.5,8 L13.5,2.5 Z"></path>
        </symbol>
        <symbol xmlns="http://www.w3.org/2000/svg" viewBox="0 0 28 28" id="icon-back">
            <path fill="currentColor" d="M21.2179 8.02261C20.0109 6.77783 18.2425 6 16 6H9.00002C8.44773 6 8.00002 6.44772 8.00002 7C8.00002 7.55228 8.44773 8 9.00002 8H16C17.7576 8 18.9892 8.59717 19.7821 9.41489C20.5864 10.2444 21 11.3629 21 12.5C21 13.6371 20.5864 14.7556 19.7821 15.5851C18.9892 16.4028 17.7576 17 16 17H8.41422L11.7071 13.7071C12.0977 13.3166 12.0977 12.6834 11.7071 12.2929C11.3166 11.9024 10.6834 11.9024 10.2929 12.2929L5.29289 17.2929C5.10536 17.4804 5 17.7348 5 18C5 18.2652 5.10536 18.5196 5.29289 18.7071L10.2929 23.7071C10.6834 24.0976 11.3166 24.0976 11.7071 23.7071C12.0977 23.3166 12.0977 22.6834 11.7071 22.2929L8.41422 19H16C18.2425 19 20.0109 18.2222 21.2179 16.9774C22.4136 15.7444 23 14.1129 23 12.5C23 10.8871 22.4136 9.25563 21.2179 8.02261Z"></path>
        </symbol>
        <symbol xmlns="http://www.w3.org/2000/svg" viewBox="0 0 48 48" id="icon-download">
            <path fill="currentColor" d="M12.25,38.5 L35.75,38.5 C36.7164983,38.5 37.5,39.2835017 37.5,40.25 C37.5,41.1681734 36.7928897,41.9211923 35.8935272,41.9941988 L35.75,42 L12.25,42 C11.2835017,42 10.5,41.2164983 10.5,40.25 C10.5,39.3318266 11.2071103,38.5788077 12.1064728,38.5058012 L12.25,38.5 L35.75,38.5 L12.25,38.5 Z M23.6064728,6.2558012 L23.75,6.25 C24.6681734,6.25 25.4211923,6.95711027 25.4941988,7.85647279 L25.5,8 L25.5,29.333 L30.2931259,24.5407377 C30.9765434,23.8573202 32.0845821,23.8573202 32.7679996,24.5407377 C33.4514171,25.2241552 33.4514171,26.3321939 32.7679996,27.0156115 L24.989825,34.7937861 C24.3064075,35.4772036 23.1983688,35.4772036 22.5149513,34.7937861 L14.7367767,27.0156115 C14.0533592,26.3321939 14.0533592,25.2241552 14.7367767,24.5407377 C15.4201942,23.8573202 16.5282329,23.8573202 17.2116504,24.5407377 L22,29.329 L22,8 C22,7.0818266 22.7071103,6.32880766 23.6064728,6.2558012 L23.75,6.25 L23.6064728,6.2558012 Z"></path>
        </symbol>
        <symbol xmlns="http://www.w3.org/2000/svg" viewBox="0 0 24 24" id="icon-contacts">
            <path fill="currentColor" d="M18,2 C19.3807,2 20.5,3.11929 20.5,4.5 L20.5,4.5 L20.5,18.75 C20.5,19.1642 20.1642,19.5 19.75,19.5 L19.75,19.5 L5.5,19.5 C5.5,20.0523 5.94772,20.5 6.5,20.5 L6.5,20.5 L19.75,20.5 C20.1642,20.5 20.5,20.8358 20.5,21.25 C20.5,21.6642 20.1642,22 19.75,22 L19.75,22 L6.5,22 C5.11929,22 4,20.8807 4,19.5 L4,19.5 L4,4.5 C4,3.11929 5.11929,2 6.5,2 L6.5,2 Z M14.75,11.5 L9.75,11.5 C9.33579,11.5 9,11.8358 9,12.25 L9,12.7495 C9,13.75 10.3831,14.5 12.25,14.5 C14.1168,14.5 15.5,13.75 15.5,12.7495 L15.5,12.25 C15.5,11.8358 15.1642,11.5 14.75,11.5 Z M12.25,7 C11.2832,7 10.5,7.77863 10.5,8.74547 C10.5,9.71231 11.2832,10.4961 12.25,10.4961 C13.2168,10.4961 14,9.71231 14,8.74547 C14,7.77863 13.2168,7 12.25,7 Z"></path>
        </symbol>
        <symbol xmlns="http://www.w3.org/2000/svg" viewBox="0 0 48 48" id="icon-mail">
            <path fill="currentColor" d="M43,16.976 L43,33.75 C43,36.6494949 40.6494949,39 37.75,39 L10.25,39 C7.35050506,39 4.99976748,36.6494949 4.99976748,33.75 L4.99976748,16.976 L23.3976016,27.0952699 C23.7727049,27.3015767 24.2272951,27.3015767 24.6023984,27.0952699 L43,16.976 Z M37.75,9 C40.6074055,9 42.9316438,11.2827599 42.9985196,14.1240842 L24,24.573411 L5.00176748,14.124 L5.00437905,14.0335954 C5.11786837,11.2344489 7.42299244,9 10.25,9 L37.75,9 Z"></path>
        </symbol>
    </defs>
</svg>