<svg xmlns="http://www.w3.org/2000/svg">
    <defs>
        <symbol xmlns="http://www.w3.org/2000/svg" viewBox="0 0 28 28" id="icon-logo">
            <path fill="currentColor" d="M26.0008 7.35334C26.0008 5.54646 24.2879 4.23059 22.5421 4.69622L4.04548 9.62939C2.84171 9.95045 2.00415 11.0407 2.00415 12.2865V15.7136C2.00415 16.9594 2.84171 18.0496 4.04548 18.3707L7 19.1587V19.5C7 21.9853 9.01472 24 11.5 24C13.2899 24 14.8357 22.955 15.5606 21.4419L22.5421 23.3039C24.2879 23.7695 26.0008 22.4536 26.0008 20.6468V7.35334ZM8.50057 19.5589L14.0722 21.0449C13.5474 21.9168 12.5918 22.5 11.5 22.5C9.86282 22.5 8.53195 21.1886 8.50057 19.5589Z"></path>
        </symbol>
        <symbol xmlns="http://www.w3.org/2000/svg" viewBox="0 0 24 24" id="icon-cookies">
            <path fill="currentColor" d="M12,2 C12.7139344,2 13.4186669,2.07493649 14.1058513,2.22228153 C14.6865234,2.34678839 14.8990219,3.06470877 14.4796691,3.48521478 C14.0147885,3.95137375 13.75,4.57867916 13.75,5.25 C13.75,6.42043414 14.5611837,7.42718287 15.6858365,7.68625206 C16.0559035,7.77149876 16.3038519,8.11989963 16.2631619,8.49747198 C16.2544079,8.57870262 16.25,8.66307444 16.25,8.75 C16.25,10.1307119 17.3692881,11.25 18.75,11.25 C19.4766017,11.25 20.151276,10.9392994 20.6235262,10.4053218 C21.0526462,9.92011177 21.8536336,10.1704416 21.9300905,10.8136579 C21.9765784,11.2047517 22,11.6008646 22,12 C22,17.5228475 17.5228475,22 12,22 C6.4771525,22 2,17.5228475 2,12 C2,6.4771525 6.4771525,2 12,2 Z M15,16 C14.4477153,16 14,16.4477153 14,17 C14,17.5522847 14.4477153,18 15,18 C15.5522847,18 16,17.5522847 16,17 C16,16.4477153 15.5522847,16 15,16 Z M8,15 C7.44771525,15 7,15.4477153 7,16 C7,16.5522847 7.44771525,17 8,17 C8.55228475,17 9,16.5522847 9,16 C9,15.4477153 8.55228475,15 8,15 Z M12,11 C11.4477153,11 11,11.4477153 11,12 C11,12.5522847 11.4477153,13 12,13 C12.5522847,13 13,12.5522847 13,12 C13,11.4477153 12.5522847,11 12,11 Z M7,8 C6.44771525,8 6,8.44771525 6,9 C6,9.55228475 6.44771525,10 7,10 C7.55228475,10 8,9.55228475 8,9 C8,8.44771525 7.55228475,8 7,8 Z"></path>
        </symbol>
        <symbol xmlns="http://www.w3.org/2000/svg" viewBox="0 0 24 24" id="icon-edit">
            <path fill="currentColor" d="M12 2V8C12 9.10457 12.8954 10 14 10H18.9209C18.324 10.2196 17.7756 10.5541 17.3621 10.9704L11.3114 17.0623C10.9598 17.4164 10.7086 17.8576 10.5836 18.3407L10.0588 20.3701C9.90491 20.9651 10.0168 21.5396 10.3007 22H5.5C4.67157 22 4 21.3284 4 20.5V3.5C4 2.67157 4.67157 2 5.5 2H12Z M13.5 2.5V8C13.5 8.27614 13.7239 8.5 14 8.5H19.5L13.5 2.5Z M12.1957 17.5719L18.0981 11.6695C18.9907 10.7768 20.4379 10.7768 21.3305 11.6695C22.2231 12.5621 22.2231 14.0093 21.3305 14.9019L15.4281 20.8043C15.084 21.1485 14.6528 21.3926 14.1806 21.5106L12.3499 21.9683C11.5538 22.1674 10.8326 21.4462 11.0317 20.6501L11.4894 18.8194C11.6074 18.3472 11.8515 17.916 12.1957 17.5719ZM19.1587 12.7301L13.2563 18.6325C13.1044 18.7844 12.9967 18.9748 12.9446 19.1832L12.6538 20.3462L13.8168 20.0554C14.0252 20.0033 14.2155 19.8956 14.3674 19.7437L20.2699 13.8412C20.5767 13.5344 20.5767 13.0369 20.2699 12.7301C19.963 12.4233 19.4656 12.4233 19.1587 12.7301Z"></path>
        </symbol>
        <symbol xmlns="http://www.w3.org/2000/svg" viewBox="0 0 48 48" id="icon-delete">
            <path fill="currentColor" d="M24,6.75 C27.3750735,6.75 30.1253119,9.4252368 30.245878,12.7708731 L30.25,13.0010013 L37,13 C37.9664983,13 38.75,13.7835017 38.75,14.75 C38.75,15.6681734 38.0428897,16.4211923 37.1435272,16.4941988 L37,16.5 L35.833,16.5 L34.2058308,38.0698451 C34.0385226,40.2866784 32.1910211,42 29.9678833,42 L18.0321167,42 C15.8089789,42 13.9614774,40.2866784 13.7941692,38.0698451 L12.166,16.5 L11,16.5 C10.0818266,16.5 9.32880766,15.7928897 9.2558012,14.8935272 L9.25,14.75 C9.25,13.8318266 9.95711027,13.0788077 10.8564728,13.0058012 L11,13 L17.75,13 C17.75,9.70163274 20.305017,7.00002168 23.5438239,6.76639376 L23.7708731,6.75412198 L24,6.75 Z M27.75,19.75 C27.1027913,19.75 26.5704661,20.2418747 26.5064536,20.8721948 L26.5,21 L26.5,33 L26.5064536,33.1278052 C26.5704661,33.7581253 27.1027913,34.25 27.75,34.25 C28.3972087,34.25 28.9295339,33.7581253 28.9935464,33.1278052 L29,33 L29,21 L28.9935464,20.8721948 C28.9295339,20.2418747 28.3972087,19.75 27.75,19.75 Z M20.25,19.75 C19.6027913,19.75 19.0704661,20.2418747 19.0064536,20.8721948 L19,21 L19,33 L19.0064536,33.1278052 C19.0704661,33.7581253 19.6027913,34.25 20.25,34.25 C20.8972087,34.25 21.4295339,33.7581253 21.4935464,33.1278052 L21.5,33 L21.5,21 L21.4935464,20.8721948 C21.4295339,20.2418747 20.8972087,19.75 20.25,19.75 Z M24.1675223,10.2550188 L24,10.25 C22.5374682,10.25 21.3415957,11.3917046 21.2550188,12.8324777 L21.2500002,13.0010036 L26.7500002,13 C26.7500002,11.5374682 25.6082954,10.3415957 24.1675223,10.2550188 Z"></path>
        </symbol>
        <symbol xmlns="http://www.w3.org/2000/svg" viewBox="0 0 48 48" id="icon-print">
            <path fill="currentColor" d="M31.75,8 C33.4830315,8 34.8992459,9.35645477 34.9948552,11.0655761 L35,11.25 L35,14 L36.75,14 C39.6494949,14 42,16.3505051 42,19.25 L42,32.75 C42,34.5449254 40.5449254,36 38.75,36 L35,36 L35,37.75 C35,39.5449254 33.5449254,41 31.75,41 L16.25,41 C14.4550746,41 13,39.5449254 13,37.75 L13,36 L9.25,36 C7.45507456,36 6,34.5449254 6,32.75 L6,19.25 C6,16.3505051 8.35050506,14 11.25,14 L13,14 L13,11.25 C13,9.51696854 14.3564548,8.10075407 16.0655761,8.00514479 L16.25,8 L31.75,8 Z M15.5,37.75 C15.5,38.1642136 15.8357864,38.5 16.25,38.5 L31.75,38.5 C32.1642136,38.5 32.5,38.1642136 32.5,37.75 L32.5,29.25 C32.5,28.8357864 32.1642136,28.5 31.75,28.5 L16.25,28.5 C15.8357864,28.5 15.5,28.8357864 15.5,29.25 L15.5,37.75 Z M31.75,10.5 L16.25,10.5 C15.8703042,10.5 15.556509,10.7821539 15.5068466,11.1482294 L15.5,11.25 L15.5,14 L32.5,14 L32.5,11.25 C32.5,10.8703042 32.2178461,10.556509 31.8517706,10.5068466 L31.75,10.5 Z"></path>
        </symbol>
        <symbol xmlns="http://www.w3.org/2000/svg" viewBox="0 0 24 24" id="icon-pdf">
            <path fill="currentColor" d="M12,2 L12,8 C12,9.05436227 12.81585,9.91816517 13.8507339,9.99451427 L14,10 L20,10 L20,10.6684 C20.5457231,10.9276923 20.9360284,11.4610959 20.9928462,12.0906982 L21,12.25 L21,17.75 C21,18.3944 20.6516734,18.9574272 20.1330898,19.2611692 L20,19.3316 L20,20 C20,21.0543909 19.18415,21.9181678 18.1492661,21.9945144 L18,22 L6,22 C4.94563773,22 4.08183483,21.18415 4.00548573,20.1492661 L4,20 L4,19.3316 C3.45424,19.0723077 3.06396592,18.5389041 3.0071531,17.9093018 L3,17.75 L3,12.25 C3,11.6056 3.34829254,11.0425728 3.86690228,10.7388308 L4,10.6684 L4,4 C4,2.94563773 4.81587733,2.08183483 5.85073759,2.00548573 L6,2 L12,2 Z M19.25,12 L4.75,12 C4.61193,12 4.5,12.1119 4.5,12.25 L4.5,17.75 C4.5,17.8881 4.61193,18 4.75,18 L19.25,18 C19.3881,18 19.5,17.8881 19.5,17.75 L19.5,12.25 C19.5,12.1119 19.3881,12 19.25,12 Z M8.50004,13.0021 C9.32858,13.0021 10.0002,13.6737 10.0002,14.5023 C10.0002,15.2820647 9.40527017,15.9229339 8.64451925,15.9956321 L8.50004,16.0025 L8.00269,16.0025 L8.00269,16.5021 C8.00269,16.7782 7.77883,17.0021 7.50269,17.0021 C7.25722333,17.0021 7.05308012,16.8251914 7.01074542,16.5919645 L7.00269,16.5021 L7.00269,13.5021 C7.00269,13.2565889 7.17955914,13.0524802 7.41281236,13.0101538 L7.50269,13.0021 L8.50004,13.0021 Z M17.0027,13.0021 C17.2788,13.0021 17.5027,13.2259 17.5027,13.5021 C17.5027,13.7782 17.2788,14.0021 17.0027,14.0021 L15.997,14.0021 L15.9958,15.0038 L17.0027,15.0038 C17.2788,15.0038 17.5027,15.2277 17.5027,15.5038 C17.5027,15.7799 17.2788,16.0038 17.0027,16.0038 L15.9964,16.0038 L15.9977,16.5008 C15.9984,16.7769 15.7751,17.0014 15.4989,17.0021 C15.2228,17.0028 14.9984,16.7795 14.9977,16.5033 L14.9951,15.5032 L14.9977,13.5014 C14.998,13.2255 15.2218,13.0021 15.4977,13.0021 L17.0027,13.0021 Z M11.9976,13.0021 C13.1021,13.0021 13.9976,13.8975 13.9976,15.0021 C13.9975045,16.0564909 13.1816502,16.9202678 12.1468531,16.9966144 L11.9976,17.0021 L11.5,17.0021 C11.2545778,17.0021 11.0504,16.8251914 11.0080571,16.5919645 L11,16.5021 L11,13.5021 C11,13.2565889 11.1769086,13.0524802 11.4101355,13.0101538 L11.5,13.0021 L11.9976,13.0021 Z M12,14.0021 L12,16.0021 C12.5512,16.0008 12.9975,15.5535 12.9976,15.0021 C12.9976,14.4899929 12.6126939,14.0678179 12.1163857,14.0090791 L12,14.0021 Z M8.50004,14.0021 L8.00269,14.0021 L8.00269,15.0025 L8.50004,15.0025 C8.7763,15.0025 9.00024,14.7785 9.00024,14.5023 C9.00024,14.2567 8.82329185,14.0525025 8.58995084,14.0101573 L8.50004,14.0021 Z M13.5,2.5 L19.5,8.5 L14,8.5 C13.7239,8.5 13.5,8.27614 13.5,8 L13.5,2.5 Z"></path>
        </symbol>
        <symbol xmlns="http://www.w3.org/2000/svg" viewBox="0 0 28 28" id="icon-back">
            <path fill="currentColor" d="M21.2179 8.02261C20.0109 6.77783 18.2425 6 16 6H9.00002C8.44773 6 8.00002 6.44772 8.00002 7C8.00002 7.55228 8.44773 8 9.00002 8H16C17.7576 8 18.9892 8.59717 19.7821 9.41489C20.5864 10.2444 21 11.3629 21 12.5C21 13.6371 20.5864 14.7556 19.7821 15.5851C18.9892 16.4028 17.7576 17 16 17H8.41422L11.7071 13.7071C12.0977 13.3166 12.0977 12.6834 11.7071 12.2929C11.3166 11.9024 10.6834 11.9024 10.2929 12.2929L5.29289 17.2929C5.10536 17.4804 5 17.7348 5 18C5 18.2652 5.10536 18.5196 5.29289 18.7071L10.2929 23.7071C10.6834 24.0976 11.3166 24.0976 11.7071 23.7071C12.0977 23.3166 12.0977 22.6834 11.7071 22.2929L8.41422 19H16C18.2425 19 20.0109 18.2222 21.2179 16.9774C22.4136 15.7444 23 14.1129 23 12.5C23 10.8871 22.4136 9.25563 21.2179 8.02261Z"></path>
        </symbol>
        <symbol xmlns="http://www.w3.org/2000/svg" viewBox="0 0 48 48" id="icon-download">
            <path fill="currentColor" d="M12.25,38.5 L35.75,38.5 C36.7164983,38.5 37.5,39.2835017 37.5,40.25 C37.5,41.1681734 36.7928897,41.9211923 35.8935272,41.9941988 L35.75,42 L12.25,42 C11.2835017,42 10.5,41.2164983 10.5,40.25 C10.5,39.3318266 11.2071103,38.5788077 12.1064728,38.5058012 L12.25,38.5 L35.75,38.5 L12.25,38.5 Z M23.6064728,6.2558012 L23.75,6.25 C24.6681734,6.25 25.4211923,6.95711027 25.4941988,7.85647279 L25.5,8 L25.5,29.333 L30.2931259,24.5407377 C30.9765434,23.8573202 32.0845821,23.8573202 32.7679996,24.5407377 C33.4514171,25.2241552 33.4514171,26.3321939 32.7679996,27.0156115 L24.989825,34.7937861 C24.3064075,35.4772036 23.1983688,35.4772036 22.5149513,34.7937861 L14.7367767,27.0156115 C14.0533592,26.3321939 14.0533592,25.2241552 14.7367767,24.5407377 C15.4201942,23.8573202 16.5282329,23.8573202 17.2116504,24.5407377 L22,29.329 L22,8 C22,7.0818266 22.7071103,6.32880766 23.6064728,6.2558012 L23.75,6.25 L23.6064728,6.2558012 Z"></path>
        </symbol>
        <symbol xmlns="http://www.w3.org/2000/svg" viewBox="0 0 24 24" id="icon-contacts">
            <path fill="currentColor" d="M18,2 C19.3807,2 20.5,3.11929 20.5,4.5 L20.5,4.5 L20.5,18.75 C20.5,19.1642 20.1642,19.5 19.75,19.5 L19.75,19.5 L5.5,19.5 C5.5,20.0523 5.94772,20.5 6.5,20.5 L6.5,20.5 L19.75,20.5 C20.1642,20.5 20.5,20.8358 20.5,21.25 C20.5,21.6642 20.1642,22 19.75,22 L19.75,22 L6.5,22 C5.11929,22 4,20.8807 4,19.5 L4,19.5 L4,4.5 C4,3.11929 5.11929,2 6.5,2 L6.5,2 Z M14.75,11.5 L9.75,11.5 C9.33579,11.5 9,11.8358 9,12.25 L9,12.7495 C9,13.75 10.3831,14.5 12.25,14.5 C14.1168,14.5 15.5,13.75 15.5,12.7495 L15.5,12.25 C15.5,11.8358 15.1642,11.5 14.75,11.5 Z M12.25,7 C11.2832,7 10.5,7.77863 10.5,8.74547 C10.5,9.71231 11.2832,10.4961 12.25,10.4961 C13.2168,10.4961 14,9.71231 14,8.74547 C14,7.77863 13.2168,7 12.25,7 Z"></path>
        </symbol>
        <symbol xmlns="http://www.w3.org/2000/svg" viewBox="0 0 48 48" id="icon-mail">
            <path fill="currentColor" d="M43,16.976 L43,33.75 C43,36.6494949 40.6494949,39 37.75,39 L10.25,39 C7.35050506,39 4.99976748,36.6494949 4.99976748,33.75 L4.99976748,16.976 L23.3976016,27.0952699 C23.7727049,27.3015767 24.2272951,27.3015767 24.6023984,27.0952699 L43,16.976 Z M37.75,9 C40.6074055,9 42.9316438,11.2827599 42.9985196,14.1240842 L24,24.573411 L5.00176748,14.124 L5.00437905,14.0335954 C5.11786837,11.2344489 7.42299244,9 10.25,9 L37.75,9 Z"></path>
        </symbol>
        <symbol xmlns="http://www.w3.org/2000/svg" viewBox="0 0 448 512" id="icon-github">
            <path fill="currentColor" d="M400 32H48C21.5 32 0 53.5 0 80v352c0 26.5 21.5 48 48 48h352c26.5 0 48-21.5 48-48V80c0-26.5-21.5-48-48-48zM277.3 415.7c-8.4 1.5-11.5-3.7-11.5-8 0-5.4.2-33 .2-55.3 0-15.6-5.2-25.5-11.3-30.7 37-4.1 76-9.2 76-73.1 0-18.2-6.5-27.3-17.1-39 1.7-4.3 7.4-22-1.7-45-13.9-4.3-45.7 17.9-45.7 17.9-13.2-3.7-27.5-5.6-41.6-5.6-14.1 0-28.4 1.9-41.6 5.6 0 0-31.8-22.2-45.7-17.9-9.1 22.9-3.5 40.6-1.7 45-10.6 11.7-15.6 20.8-15.6 39 0 63.6 37.3 69 74.3 73.1-4.8 4.3-9.1 11.7-10.6 22.3-9.5 4.3-33.8 11.7-48.3-13.9-9.1-15.8-25.5-17.1-25.5-17.1-16.2-.2-1.1 10.2-1.1 10.2 10.8 5 18.4 24.2 18.4 24.2 9.7 29.7 56.1 19.7 56.1 19.7 0 13.9.2 36.5.2 40.6 0 4.3-3 9.5-11.5 8-66-22.1-112.2-84.9-112.2-158.3 0-91.8 70.2-161.5 162-161.5S388 165.6 388 257.4c.1 73.4-44.7 136.3-110.7 158.3zm-98.1-61.1c-1.9.4-3.7-.4-3.9-1.7-.2-1.5 1.1-2.8 3-3.2 1.9-.2 3.7.6 3.9 1.9.3 1.3-1 2.6-3 3zm-9.5-.9c0 1.3-1.5 2.4-3.5 2.4-2.2.2-3.7-.9-3.7-2.4 0-1.3 1.5-2.4 3.5-2.4 1.9-.2 3.7.9 3.7 2.4zm-13.7-1.1c-.4 1.3-2.4 1.9-4.1 1.3-1.9-.4-3.2-1.9-2.8-3.2.4-1.3 2.4-1.9 4.1-1.5 2 .6 3.3 2.1 2.8 3.4zm-12.3-5.4c-.9 1.1-2.8.9-4.3-.6-1.5-1.3-1.9-3.2-.9-4.1.9-1.1 2.8-.9 4.3.6 1.3 1.3 1.8 3.3.9 4.1zm-9.1-9.1c-.9.6-2.6 0-3.7-1.5s-1.1-3.2 0-3.9c1.1-.9 2.8-.2 3.7 1.3 1.1 1.5 1.1 3.3 0 4.1zm-6.5-9.7c-.9.9-2.4.4-3.5-.6-1.1-1.3-1.3-2.8-.4-3.5.9-.9 2.4-.4 3.5.6 1.1 1.3 1.3 2.8.4 3.5zm-6.7-7.4c-.4.9-1.7 1.1-2.8.4-1.3-.6-1.9-1.7-1.5-2.6.4-.6 1.5-.9 2.8-.4 1.3.7 1.9 1.8 1.5 2.6z"></path>
        </symbol>
        <symbol xmlns="http://www.w3.org/2000/svg" viewBox="0 0 448 512" id="icon-linkedin">
            <path fill="currentColor" d="M416 32H31.9C14.3 32 0 46.5 0 64.3v383.4C0 465.5 14.3 480 31.9 480H416c17.6 0 32-14.5 32-32.3V64.3c0-17.8-14.4-32.3-32-32.3zM135.4 416H69V202.2h66.5V416zm-33.2-243c-21.3 0-38.5-17.3-38.5-38.5S80.9 96 102.2 96c21.2 0 38.5 17.3 38.5 38.5 0 21.3-17.2 38.5-38.5 38.5zm282.1 243h-66.4V312c0-24.8-.5-56.7-34.5-56.7-34.6 0-39.9 27-39.9 54.9V416h-66.4V202.2h63.7v29.2h.9c8.9-16.8 30.6-34.5 62.9-34.5 67.2 0 79.7 44.3 79.7 101.9V416z"></path>
        </symbol>
    </defs>
</svg>